<svg width="65" height="65" viewBox="0 0 65 65" fill="none" xmlns="http://www.w3.org/2000/svg">
<path id="Vector" d="M0.601521 47.7217C0.946736 53.267 2.55609 58.5621 5.46254 63.3069C6.06825 64.2957 7.2904 64.4476 8.15505 63.7026C11.5807 60.751 15.0065 57.7995 18.4324 54.848C20.0991 53.412 17.7056 50.967 16.0407 52.4017C14.2045 53.9837 12.3684 55.5655 10.5323 57.1475C13.3776 35.7513 24.4683 13.6451 46.1263 6.31984C51.5156 4.49707 57.148 3.79969 62.8106 4.38794C65.005 4.61596 65.0685 1.19422 62.8921 0.967821C52.2591 -0.137337 41.5356 3.21377 32.8479 9.31008C23.1043 16.1474 16.2405 26.0866 11.9954 37.1173C9.44011 43.7575 7.89436 50.721 7.01587 57.7706C6.90953 58.623 7.36665 59.1477 7.97771 59.3479C7.79248 59.5076 7.60729 59.6672 7.42205 59.8269C5.46212 56.0976 4.28566 52.0445 4.02174 47.803C3.88549 45.6181 0.464815 45.5237 0.601521 47.7217Z" fill="#3A20B0"/>
</svg>
